<?xml version="1.0" standalone="no"?>
<!DOCTYPE svg PUBLIC "-//W3C//DTD SVG 20010904//EN"
 "http://www.w3.org/TR/2001/REC-SVG-20010904/DTD/svg10.dtd">
<svg version="1.0" xmlns="http://www.w3.org/2000/svg"
 width="103.000000pt" height="95.000000pt" viewBox="0 0 103.000000 95.000000"
 preserveAspectRatio="xMidYMid meet">
<g transform="translate(0.000000,95.000000) scale(0.100000,-0.100000)"
fill="#000000" stroke="none">
<path d="M264 921 c-115 -70 -126 -234 -19 -285 19 -9 51 -16 71 -14 40 3 59
-17 27 -28 -31 -12 -63 -47 -63 -70 0 -15 -15 -35 -41 -56 -76 -60 -89 -76
-89 -106 0 -25 -5 -30 -38 -40 -47 -14 -100 -67 -108 -109 -5 -26 -1 -37 21
-58 33 -34 68 -29 142 20 61 41 64 41 88 15 10 -11 30 -20 45 -20 15 0 47 -7
70 -15 23 -8 57 -15 75 -15 30 0 33 -3 38 -41 7 -57 40 -89 89 -89 60 0 91 36
86 100 -3 46 -1 50 35 74 21 14 43 26 49 26 7 0 21 9 33 20 21 20 21 20 81
-10 74 -37 117 -38 149 -5 29 28 31 45 10 84 -17 34 -66 59 -144 73 -47 9 -60
16 -74 40 -9 16 -17 41 -17 54 0 36 -25 79 -61 105 -26 18 -48 23 -127 26 -53
2 -98 5 -100 8 -2 2 3 28 12 58 34 117 8 221 -64 259 -47 24 -135 24 -176 -1z
m140 -15 c77 -32 97 -98 71 -232 -11 -58 -16 -111 -12 -142 6 -47 4 -50 -19
-56 -49 -13 -59 -2 -56 58 2 29 -1 71 -7 92 -8 28 -8 40 1 46 7 4 9 10 6 14
-4 3 -23 -4 -42 -16 -31 -19 -40 -20 -71 -10 -105 35 -96 178 14 237 51 27 69
28 115 9z m147 -336 c24 0 29 -4 29 -24 0 -13 9 -35 21 -50 24 -31 115 -86
143 -86 16 0 18 -5 12 -41 -10 -61 -45 -136 -72 -154 -31 -20 -31 -20 -26 20
3 22 -2 45 -13 61 -21 33 -77 56 -113 48 -27 -6 -27 -6 -4 11 13 10 22 27 22
43 0 15 3 45 6 68 5 37 3 43 -26 67 -17 15 -36 27 -41 27 -6 0 -7 5 -4 11 4 6
14 8 22 5 8 -3 28 -6 44 -6z m-171 -4 c0 -7 -72 -47 -77 -43 -6 7 48 47 63 47
8 0 14 -2 14 -4z m310 -11 c39 -20 60 -53 60 -92 0 -39 -11 -41 -60 -12 -50
30 -90 70 -90 90 0 31 45 37 90 14z m-173 -37 c26 -25 30 -69 8 -88 -12 -10
-13 -16 -4 -26 9 -11 8 -18 -1 -29 -17 -21 -51 -19 -57 3 -3 14 -12 17 -32 14
-74 -11 -132 51 -98 107 23 38 41 40 32 3 -5 -25 -2 -33 14 -41 52 -28 147 17
111 53 -11 11 -13 26 -3 26 4 0 17 -10 30 -22z m-215 -57 c-6 -43 35 -79 99
-87 27 -4 49 -11 49 -16 0 -5 10 -13 23 -18 14 -5 16 -9 6 -9 -8 -1 -28 -14
-44 -31 -29 -30 -38 -76 -21 -112 7 -15 4 -15 -28 -6 -33 10 -36 14 -36 50 0
65 -51 158 -87 158 -23 0 -10 42 25 83 19 22 19 22 14 -12z m-87 -91 c-17 -39
-35 -45 -35 -13 0 18 40 66 48 58 3 -3 -3 -23 -13 -45z m575 -23 c0 -35 -28
-99 -47 -104 -7 -3 -5 14 8 47 10 27 19 62 19 76 0 14 4 23 10 19 6 -3 10 -21
10 -38z m-513 11 c32 -36 53 -84 53 -123 0 -31 -3 -35 -26 -35 -20 0 -24 4
-19 19 8 25 -23 99 -46 112 -15 8 -17 14 -9 29 14 26 22 25 47 -2z m628 -22
c82 -25 121 -81 74 -107 -27 -14 -58 -8 -130 26 -57 26 -57 26 -46 60 12 40
27 43 102 21z m-288 -38 c15 -14 23 -33 23 -54 0 -47 -17 -51 -37 -9 -26 55
-90 62 -126 13 -19 -26 -20 -29 -4 -46 23 -25 21 -41 -3 -35 -24 6 -50 40 -50
64 0 10 12 31 26 48 45 54 125 62 171 19z m-365 -18 c18 -35 18 -35 -20 -42
-20 -3 -61 -22 -91 -42 -58 -39 -63 -41 -92 -26 -43 24 -1 96 73 123 92 34
108 32 130 -13z m348 -85 c35 -77 38 -113 10 -143 -25 -27 -41 -28 -70 -4 -18
14 -24 33 -30 94 -4 41 -11 81 -15 88 -10 16 12 30 48 30 24 0 31 -8 57 -65z"/>
<path d="M216 788 c-3 -13 -1 -27 4 -32 7 -7 10 1 10 22 0 37 -5 41 -14 10z"/>
<path d="M296 774 c-4 -15 -4 -29 -1 -32 8 -8 25 19 25 41 0 26 -17 20 -24 -9z"/>
<path d="M631 396 c-9 -11 -10 -20 -1 -35 24 -46 90 -51 90 -7 0 45 -63 74
-89 42z m67 -33 c4 -27 -19 -31 -42 -7 -20 20 -11 36 17 32 14 -2 23 -11 25
-25z"/>
<path d="M650 546 c0 -17 56 -66 76 -66 24 0 16 17 -23 49 -42 34 -53 38 -53
17z"/>
</g>
</svg>
